Coordinates
version=1
nRows=8
nColumns=33
inDegrees=yes

Units are S.I. units (second, meters, Newtons, ...)
Angles are in degrees.

endheader
time	ground_thorax_rot_x	ground_thorax_rot_y	ground_thorax_rot_z	ground_thorax_tx	ground_thorax_ty	ground_thorax_tz	clav_prot_r	clav_elev_r	scapula_abduction_r	scapula_elevation_r	scapula_upward_rot_r	scapula_winging_r	shoulder_elv_r	plane_of_elev_r	axial_rot_r	elbow_flexion_r	pro_sup_r	wrist_flex_r	wrist_dev_r	clav_prot_l	clav_elev_l	scapula_abduction_l	scapula_elevation_l	scapula_upward_rot_l	scapula_winging_l	shoulder_elv_l	plane_of_elev_l	axial_rot_l	elbow_flexion_l	pro_sup_l	wrist_flex_l	wrist_dev_l
      7.20000000	    -40.84198299	    -11.39894960	     11.96682759	   -158.66476877	    812.00211593	      7.51372715	      8.70184004	    -45.00000000	     43.50526734	    -45.00000000	    -27.42878320	  -2616.69084281	  -2087.67466247	     32.70003248	     40.49141681	   2171.25828197	     17.16935079	     18.23068954	     11.42010859	     17.00052752	     41.93566865	    -43.13890772	    -45.00000000	    -32.54712013	     83.89732922	  -2810.79025766	     28.80788122	      5.99951263	    366.61721233	     27.01250105	     10.80383184	    -21.40522446
      7.21000000	    -40.76024679	    -11.44990321	     12.16352891	   -163.37086073	    814.17295178	      7.44445916	      8.73408527	    -45.00000000	     43.27948419	    -45.00000000	    -28.13425339	  -2617.05287260	  -2087.27170740	     32.77387566	     40.83796453	   2171.28854274	     17.03420295	     18.32556235	     11.14032933	     16.88409353	     41.75975300	    -42.94285250	    -45.00000000	    -33.01505095	     84.23723629	  -2810.52891844	     28.62831347	      4.97530607	    366.81862392	     25.93919433	     10.76010408	    -21.49486403
      7.22000000	    -40.67829653	    -11.46408534	     12.30152185	   -168.07956118	    816.30862709	      7.38162374	      8.72663038	    -45.00000000	     43.07406435	    -45.00000000	    -28.84100205	  -2617.41217069	  -2086.87709052	     32.85309603	     41.23022376	   2171.36286611	     17.03064888	     18.43227513	     10.85218225	     16.75422098	     41.59472210	    -42.72102260	    -45.00000000	    -33.43231597	     84.58422520	  -2810.32882906	     28.45453204	      3.89330074	    367.02840789	     24.87459052	     10.73169433	    -21.60514839
      7.23000000	    -40.57697945	    -11.59422454	     12.57543299	   -172.78528845	    818.39124764	      7.32258159	      8.77912630	    -45.00000000	     42.83068579	    -45.00000000	    -29.74250813	  -2617.76949032	  -2086.48496164	     32.95974990	     41.76370926	   2171.41775008	     17.21458646	     18.52924483	     10.50325947	     16.66205842	     41.32677527	    -42.49408552	    -45.00000000	    -34.08105785	     84.87096934	  -2810.05066938	     28.28260933	      2.93247574	    367.11429632	     23.66989152	     10.67473310	    -21.66600643
      7.24000000	    -40.50464327	    -11.45558356	     12.63345497	   -177.47332826	    820.39838590	      7.26346031	      8.80621418	    -45.00000000	     42.68736262	    -45.00000000	    -30.28955260	  -2618.16998088	  -2086.20577427	     32.96865017	     42.47065651	   2171.45916520	     17.62010191	     18.62010587	     10.20194876	     16.51967029	     41.16313553	    -42.28825769	    -45.00000000	    -34.46090010	     85.19352759	  -2809.88931588	     28.12717818	      1.75150066	    367.31977440	     22.59902257	     10.68568650	    -21.77983457
      7.25000000	    -40.32746833	    -11.74907061	     13.08299212	   -182.13513334	    822.31024251	      7.19895590	      8.79499715	    -45.00000000	     42.36922747	    -45.00000000	    -31.66871310	  -2618.44870536	  -2085.71610981	     33.05986738	     43.31148780	   2171.61085352	     18.34263087	     18.70805285	      9.65545527	     16.48831086	     40.90063394	    -42.02678085	    -45.00000000	    -35.31372539	     85.31156500	  -2809.57327045	     27.90932366	      1.25223499	    367.19879947	     21.06376344	     10.61146048	    -21.74817874
      7.26000000	    -40.30003596	    -11.28981746	     12.78397613	   -186.77015817	    824.10993454	      7.12393832	      8.75207919	    -45.00000000	     42.53650328	    -45.00000000	    -31.37415058	  -2618.83822763	  -2085.50797624	     32.77729483	     43.93981174	   2171.72267330	     19.12221530	     18.80593184	      9.48643124	     16.17732188	     41.30051647	    -41.73572315	    -45.00000000	    -35.48134193	     85.77731669	  -2809.52635737	     27.96605486	     -0.79098024	    367.61149628	     20.39151265	     10.87698387	    -21.97494538
      7.27000000	    -40.18511756	    -11.48546200	     13.09248833	   -191.36533401	    825.77916168	      7.03425976	      8.93226339	    -45.00000000	     42.19900939	    -45.00000000	    -32.63745679	  -2619.26452010	  -2085.31137162	     33.11207683	     45.00967155	   2171.74733804	     20.31916901	     18.88277331	      9.17088828	     16.26503902	     40.45995209	    -41.64360181	    -45.00000000	    -36.31116853	     85.99313718	  -2809.31444169	     27.59478765	     -1.68837610	    367.52939550	     19.21050233	     10.61561309	    -21.93137968
